<?xml version="1.0" encoding="utf-8"?><svg xmlns="http://www.w3.org/2000/svg" xmlns:xlink="http://www.w3.org/1999/xlink" width="1366" height="625" preserveAspectRatio="xMidYMid" viewBox="0 0 1366 625" style="z-index:1;margin-right:-2px;display:block;background-repeat-y:initial;background-repeat-x:initial;background-color:rgb(241, 242, 243);animation-play-state:paused" ><g transform="translate(683,312.5) scale(1,1) translate(-683,-312.5)" style="transform:matrix(1, 0, 0, 1, 0, 0);animation-play-state:paused" ><linearGradient id="lg-0.9164482504744282" x1="0" x2="1" y1="0" y2="0" style="animation-play-state:paused" ><stop stop-color="#8800ff" offset="0" style="animation-play-state:paused" ></stop>

  
<stop stop-color="#00ffff" offset="1" style="animation-play-state:paused" ></stop></linearGradient>
<path d="M 0 0 L 0 590.65 Q 136.6 591.984 273.2 569.54 T 546.4 514.77 T 819.6 396.94 T 1092.8 414.041 T 1366 349.186 L 1366 0 Z" fill="url(#lg-0.9164482504744282)" opacity="0.4" style="opacity:0.4;animation-play-state:paused" ></path>
<path d="M 0 0 L 0 578.305 Q 136.6 559.336 273.2 520.832 T 546.4 480.745 T 819.6 385.994 T 1092.8 348.93 T 1366 284.601 L 1366 0 Z" fill="url(#lg-0.9164482504744282)" opacity="0.4" style="opacity:0.4;animation-play-state:paused" ></path>
<path d="M 0 0 L 0 591.275 Q 136.6 543.642 273.2 514.25 T 546.4 505.945 T 819.6 430.77 T 1092.8 351.604 T 1366 292.909 L 1366 0 Z" fill="url(#lg-0.9164482504744282)" opacity="0.4" style="opacity:0.4;animation-play-state:paused" ></path>
<path d="M 0 0 L 0 618.085 Q 136.6 560.138 273.2 518.381 T 546.4 443.981 T 819.6 381.905 T 1092.8 352.38 T 1366 324.445 L 1366 0 Z" fill="url(#lg-0.9164482504744282)" opacity="0.4" style="opacity:0.4;animation-play-state:paused" ></path>
<path d="M 0 0 L 0 572.589 Q 136.6 535.452 273.2 498.683 T 546.4 443.475 T 819.6 426.685 T 1092.8 370.783 T 1366 307.268 L 1366 0 Z" fill="url(#lg-0.9164482504744282)" opacity="0.4" style="opacity:0.4;animation-play-state:paused" ></path></g></svg>